<svg width="111" height="27" viewBox="0 0 111 27" fill="none" xmlns="http://www.w3.org/2000/svg">
<path d="M12.21 0.799999H0.3275V26H6.05V17.145H12.21C17.6 17.145 20.6975 13.995 20.6975 9.025C20.6975 3.95 17.6 0.799999 12.21 0.799999ZM11.5275 12.1925H6.05V5.8575H11.5275C13.7325 5.8575 14.905 7.1175 14.905 9.025C14.905 10.915 13.7325 12.1925 11.5275 12.1925ZM33.4621 7.03C30.8546 7.03 29.0871 8.4825 28.3871 10.075V7.45H23.0671V26H28.4921V17.1975C28.4921 13.9775 30.2596 11.895 32.8846 11.895C33.5496 11.895 34.3721 11.965 34.8446 12.0875L35.7196 7.3275C34.7396 7.0825 34.0046 7.03 33.4621 7.03ZM41.94 18.3525H54.715V17.11C54.715 11.1425 51.0925 6.9775 45.58 6.9775C40.1375 6.9775 36.3575 10.915 36.3575 16.935C36.3575 22.6925 40.3125 26.49 45.965 26.49C49.43 26.49 52.1775 25.2825 54.0675 22.885L50.4275 20.12C49.22 21.6425 47.855 22.1675 46.21 22.1675C43.5675 22.1675 42.3075 20.6275 41.94 18.3525ZM45.5625 11.3C47.3825 11.3 48.7125 12.56 49.15 14.87H41.9925C42.4475 12.5075 43.795 11.3 45.5625 11.3ZM65.0819 26.595C69.7544 26.595 73.3419 24.53 73.3419 20.295C73.3419 16.1825 69.9819 14.9225 66.3769 14.415C63.5769 14.03 62.3169 13.715 62.3169 12.665C62.3169 11.7025 63.4719 11.2825 65.0469 11.2825C66.9894 11.2825 68.7744 11.79 70.1569 13.015L73.1144 9.7075C71.0669 7.87 68.5119 6.89 65.0994 6.89C60.1644 6.89 57.0319 9.1825 57.0319 12.875C57.0319 16.62 59.8144 18.3175 64.0494 18.895C66.8844 19.2975 68.0569 19.6125 68.0569 20.6975C68.0569 21.66 67.0244 22.2025 65.1869 22.2025C62.5444 22.2025 60.4444 21.38 59.0794 19.945L55.9294 23.27C57.8369 25.2125 60.8294 26.595 65.0819 26.595ZM83.6414 26.595C88.3139 26.595 91.9014 24.53 91.9014 20.295C91.9014 16.1825 88.5414 14.9225 84.9364 14.415C82.1364 14.03 80.8764 13.715 80.8764 12.665C80.8764 11.7025 82.0314 11.2825 83.6064 11.2825C85.5489 11.2825 87.3339 11.79 88.7164 13.015L91.6739 9.7075C89.6264 7.87 87.0714 6.89 83.6589 6.89C78.7239 6.89 75.5914 9.1825 75.5914 12.875C75.5914 16.62 78.3739 18.3175 82.6089 18.895C85.4439 19.2975 86.6164 19.6125 86.6164 20.6975C86.6164 21.66 85.5839 22.2025 83.7464 22.2025C81.1039 22.2025 79.0039 21.38 77.6389 19.945L74.4889 23.27C76.3964 25.2125 79.3889 26.595 83.6414 26.595ZM102.3 7.03C99.0628 7.03 96.3678 8.2025 94.7053 10.18L97.8728 13.4C98.8528 12.28 100.253 11.51 101.88 11.51C103.858 11.51 105.1 12.4725 105.1 14.5725V14.7825H102.44C96.8228 14.7825 93.9003 16.725 93.9003 20.6625C93.9003 24.32 96.7178 26.49 100.113 26.49C102.72 26.49 104.418 25.44 105.24 23.9525V26H110.56V14.6075C110.56 9.4975 107.48 7.03 102.3 7.03ZM105.135 19.175C105.135 20.8025 103.683 22.605 101.583 22.605C100.043 22.605 99.0803 21.8525 99.0803 20.4525C99.0803 18.895 100.585 18.265 102.965 18.265H105.135V19.175Z" fill="#734E3F"/>
</svg>
