<svg width="25" height="25" viewBox="0 0 25 25" fill="none" xmlns="http://www.w3.org/2000/svg">
<mask id="mask0_249_349" style="mask-type:alpha" maskUnits="userSpaceOnUse" x="0" y="0" width="25" height="25">
<rect width="25" height="25" fill="#C4C4C4"/>
</mask>
<g mask="url(#mask0_249_349)">
<path d="M5.12817 18.5352C5.12817 19.3439 5.80113 20 6.63058 20H17.6482C18.4777 20 19.1506 19.3439 19.1506 18.5352V10.2344H5.12817V18.5352ZM15.1442 12.5537C15.1442 12.3523 15.3132 12.1875 15.5198 12.1875H16.7718C16.9784 12.1875 17.1474 12.3523 17.1474 12.5537V13.7744C17.1474 13.9758 16.9784 14.1406 16.7718 14.1406H15.5198C15.3132 14.1406 15.1442 13.9758 15.1442 13.7744V12.5537ZM15.1442 16.46C15.1442 16.2585 15.3132 16.0938 15.5198 16.0938H16.7718C16.9784 16.0938 17.1474 16.2585 17.1474 16.46V17.6807C17.1474 17.8821 16.9784 18.0469 16.7718 18.0469H15.5198C15.3132 18.0469 15.1442 17.8821 15.1442 17.6807V16.46ZM11.1378 12.5537C11.1378 12.3523 11.3068 12.1875 11.5134 12.1875H12.7654C12.972 12.1875 13.141 12.3523 13.141 12.5537V13.7744C13.141 13.9758 12.972 14.1406 12.7654 14.1406H11.5134C11.3068 14.1406 11.1378 13.9758 11.1378 13.7744V12.5537ZM11.1378 16.46C11.1378 16.2585 11.3068 16.0938 11.5134 16.0938H12.7654C12.972 16.0938 13.141 16.2585 13.141 16.46V17.6807C13.141 17.8821 12.972 18.0469 12.7654 18.0469H11.5134C11.3068 18.0469 11.1378 17.8821 11.1378 17.6807V16.46ZM7.13138 12.5537C7.13138 12.3523 7.3004 12.1875 7.50698 12.1875H8.75898C8.96556 12.1875 9.13458 12.3523 9.13458 12.5537V13.7744C9.13458 13.9758 8.96556 14.1406 8.75898 14.1406H7.50698C7.3004 14.1406 7.13138 13.9758 7.13138 13.7744V12.5537ZM7.13138 16.46C7.13138 16.2585 7.3004 16.0938 7.50698 16.0938H8.75898C8.96556 16.0938 9.13458 16.2585 9.13458 16.46V17.6807C9.13458 17.8821 8.96556 18.0469 8.75898 18.0469H7.50698C7.3004 18.0469 7.13138 17.8821 7.13138 17.6807V16.46ZM17.6482 6.32812H16.1458V4.86328C16.1458 4.59473 15.9204 4.375 15.645 4.375H14.6434C14.368 4.375 14.1426 4.59473 14.1426 4.86328V6.32812H10.1362V4.86328C10.1362 4.59473 9.91083 4.375 9.63539 4.375H8.63378C8.35834 4.375 8.13298 4.59473 8.13298 4.86328V6.32812H6.63058C5.80113 6.32812 5.12817 6.98425 5.12817 7.79297V9.25781H19.1506V7.79297C19.1506 6.98425 18.4777 6.32812 17.6482 6.32812Z" fill="#734E3F"/>
</g>
</svg>
