<svg width="25" height="25" viewBox="0 0 25 25" fill="none" xmlns="http://www.w3.org/2000/svg">
<mask id="mask0_249_361" style="mask-type:alpha" maskUnits="userSpaceOnUse" x="0" y="0" width="25" height="25">
<rect width="25" height="25" fill="#C4C4C4"/>
</mask>
<g mask="url(#mask0_249_361)">
<path d="M12.8906 5C8.60248 5 5.12817 8.38745 5.12817 12.5684C5.12817 16.7493 8.60248 20.1367 12.8906 20.1367C17.1787 20.1367 20.653 16.7493 20.653 12.5684C20.653 8.38745 17.1787 5 12.8906 5ZM14.6778 15.6842L11.9172 13.728C11.8201 13.6578 11.7638 13.548 11.7638 13.432V8.2959C11.7638 8.09448 11.9328 7.92969 12.1394 7.92969H13.6418C13.8484 7.92969 14.0174 8.09448 14.0174 8.2959V12.4982L16.005 13.9081C16.174 14.0271 16.2084 14.256 16.0863 14.4208L15.2037 15.6049C15.0816 15.7666 14.8468 15.8032 14.6778 15.6842Z" fill="#734E3F"/>
</g>
</svg>
