<svg width="47" height="44" viewBox="0 0 47 44" fill="none" xmlns="http://www.w3.org/2000/svg">
<g opacity="0.3">
<mask id="mask0_62_2900" style="mask-type:alpha" maskUnits="userSpaceOnUse" x="0" y="0" width="47" height="44">
<rect width="47" height="44" fill="#C4C4C4"/>
</mask>
<g mask="url(#mask0_62_2900)">
<path d="M23.5 11C16.5957 11 11 15.5459 11 21.1562C11 23.5781 12.0449 25.7949 13.7832 27.5381C13.1729 29.999 11.1318 32.1914 11.1074 32.2158C11 32.3281 10.9707 32.4941 11.0342 32.6406C11.0977 32.7871 11.2344 32.875 11.3906 32.875C14.6279 32.875 17.0547 31.3223 18.2559 30.3652C19.8525 30.9658 21.625 31.3125 23.5 31.3125C30.4043 31.3125 36 26.7666 36 21.1562C36 15.5459 30.4043 11 23.5 11Z" fill="black"/>
</g>
</g>
</svg>
