<svg width="47" height="40" viewBox="0 0 47 40" fill="none" xmlns="http://www.w3.org/2000/svg">
<g opacity="0.3">
<mask id="mask0_62_2896" style="mask-type:alpha" maskUnits="userSpaceOnUse" x="0" y="0" width="47" height="40">
<rect width="46.8571" height="40" fill="#C4C4C4"/>
</mask>
<g mask="url(#mask0_62_2896)">
<path d="M37.5414 19.085C34.8514 13.8365 29.526 10.2854 23.4283 10.2854C17.3305 10.2854 12.0037 13.839 9.31517 19.0855C9.2017 19.31 9.14258 19.5579 9.14258 19.8095C9.14258 20.061 9.2017 20.309 9.31517 20.5334C12.0052 25.7819 17.3305 29.333 23.4283 29.333C29.526 29.333 34.8529 25.7794 37.5414 20.5329C37.6548 20.3085 37.714 20.0605 37.714 19.809C37.714 19.5575 37.6548 19.3095 37.5414 19.085ZM23.4283 26.9521C22.0155 26.9521 20.6345 26.5331 19.4599 25.7483C18.2853 24.9634 17.3698 23.8478 16.8291 22.5427C16.2885 21.2375 16.147 19.8013 16.4227 18.4157C16.6983 17.0301 17.3786 15.7574 18.3775 14.7584C19.3764 13.7595 20.6492 13.0792 22.0348 12.8036C23.4203 12.528 24.8565 12.6694 26.1617 13.2101C27.4669 13.7507 28.5825 14.6662 29.3673 15.8409C30.1522 17.0155 30.5711 18.3965 30.5711 19.8092C30.5716 20.7474 30.3871 21.6764 30.0283 22.5432C29.6695 23.41 29.1434 24.1976 28.48 24.861C27.8167 25.5244 27.0291 26.0505 26.1623 26.4093C25.2954 26.7681 24.3664 26.9525 23.4283 26.9521ZM23.4283 15.0473C23.0032 15.0532 22.5809 15.1165 22.1728 15.2353C22.5092 15.6925 22.6707 16.2551 22.6279 16.8211C22.585 17.3871 22.3408 17.919 21.9394 18.3204C21.5381 18.7217 21.0061 18.966 20.4401 19.0088C19.8741 19.0516 19.3115 18.8902 18.8544 18.5538C18.594 19.5129 18.641 20.5295 18.9887 21.4605C19.3364 22.3915 19.9673 23.1901 20.7927 23.7437C21.618 24.2974 22.5961 24.5783 23.5895 24.5469C24.5828 24.5155 25.5413 24.1734 26.33 23.5688C27.1187 22.9641 27.698 22.1274 27.9862 21.1763C28.2745 20.2252 28.2572 19.2076 27.9368 18.2668C27.6165 17.3261 27.0092 16.5094 26.2004 15.9319C25.3916 15.3543 24.4221 15.045 23.4283 15.0473Z" fill="black"/>
</g>
</g>
</svg>
