<svg width="25" height="25" viewBox="0 0 25 25" fill="none" xmlns="http://www.w3.org/2000/svg">
<mask id="mask0_87_3029" style="mask-type:alpha" maskUnits="userSpaceOnUse" x="0" y="0" width="25" height="25">
<rect width="25" height="25" fill="#C4C4C4"/>
</mask>
<g mask="url(#mask0_87_3029)">
<path d="M18.0852 6.41633C18.8513 7.18242 19.459 8.0919 19.8736 9.09284C20.2882 10.0938 20.5016 11.1666 20.5016 12.25C20.5016 13.3334 20.2882 14.4062 19.8736 15.4072C19.459 16.4081 18.8513 17.3176 18.0852 18.0837M18.0852 18.0837L15.492 15.4904M18.0852 18.0837L20.5015 20.5M15.4929 9.00867C15.9186 9.43428 16.2563 9.9396 16.4867 10.4958C16.7171 11.0519 16.8357 11.648 16.8357 12.25C16.8357 12.852 16.7171 13.4481 16.4867 14.0042C16.2563 14.5604 15.9186 15.0657 15.4929 15.4913L12.8996 12.8981M12.8996 12.8981C12.9872 12.8135 13.057 12.7124 13.105 12.6005C13.1531 12.4887 13.1784 12.3684 13.1794 12.2467C13.1805 12.125 13.1573 12.0043 13.1112 11.8916C13.0651 11.779 12.9971 11.6766 12.911 11.5906C12.8249 11.5045 12.7226 11.4364 12.6099 11.3903C12.4973 11.3442 12.3766 11.321 12.2548 11.3221C12.1331 11.3232 12.0128 11.3484 11.901 11.3965C11.7892 11.4445 11.688 11.5144 11.6035 11.6019M12.8996 12.8981L11.6035 11.6019M9.01021 15.4913C8.30756 14.7906 7.85252 13.8798 7.71404 12.8972M6.41787 18.0837C5.3309 16.9973 4.56899 15.6288 4.21802 14.1326C3.86705 12.6364 3.94097 11.0719 4.43146 9.6155M11.6035 11.6019L4.00154 4" stroke="#734E3F" stroke-width="2" stroke-linecap="round" stroke-linejoin="round"/>
</g>
</svg>
