<svg width="25" height="25" viewBox="0 0 25 25" fill="none" xmlns="http://www.w3.org/2000/svg">
<mask id="mask0_249_318" style="mask-type:alpha" maskUnits="userSpaceOnUse" x="0" y="0" width="25" height="25">
<rect width="25" height="25" fill="#C4C4C4"/>
</mask>
<g mask="url(#mask0_249_318)">
<path d="M6.41641 18.6673C5.65031 17.9012 5.04261 16.9918 4.628 15.9908C4.2134 14.9899 4 13.9171 4 12.8337C4 11.7503 4.2134 10.6774 4.628 9.6765C5.04261 8.67556 5.65031 7.76608 6.41641 7M18.0837 7C18.8498 7.76608 19.4575 8.67556 19.8721 9.6765C20.2867 10.6774 20.5001 11.7503 20.5001 12.8337C20.5001 13.9171 20.2867 14.9899 19.8721 15.9908C19.4575 16.9918 18.8498 17.9012 18.0837 18.6673M9.00874 16.0741C8.1495 15.2146 7.6668 14.049 7.6668 12.8337C7.6668 11.6183 8.1495 10.4528 9.00874 9.59325M15.4914 9.59325C16.3506 10.4528 16.8333 11.6183 16.8333 12.8337C16.8333 14.049 16.3506 15.2146 15.4914 16.0741M13.1667 12.8337C13.1667 13.0768 13.0702 13.3099 12.8983 13.4818C12.7263 13.6538 12.4932 13.7503 12.2501 13.7503C12.007 13.7503 11.7738 13.6538 11.6019 13.4818C11.43 13.3099 11.3334 13.0768 11.3334 12.8337C11.3334 12.5906 11.43 12.3574 11.6019 12.1855C11.7738 12.0136 12.007 11.917 12.2501 11.917C12.4932 11.917 12.7263 12.0136 12.8983 12.1855C13.0702 12.3574 13.1667 12.5906 13.1667 12.8337Z" stroke="#734E3F" stroke-width="2" stroke-linecap="round" stroke-linejoin="round"/>
</g>
</svg>
