<svg width="25" height="25" viewBox="0 0 25 25" fill="none" xmlns="http://www.w3.org/2000/svg">
<mask id="mask0_249_355" style="mask-type:alpha" maskUnits="userSpaceOnUse" x="0" y="0" width="25" height="25">
<rect x="0.5" y="0.5" width="24" height="24" fill="#C4C4C4" stroke="black"/>
</mask>
<g mask="url(#mask0_249_355)">
<path d="M20.0708 9.33426L18.6278 10.7411C18.4807 10.8846 18.2428 10.8846 18.0957 10.7411L14.6214 7.35367C14.4743 7.21024 14.4743 6.9783 14.6214 6.83487L16.0643 5.42801C16.6497 4.85733 17.6012 4.85733 18.1896 5.42801L20.0708 7.26212C20.6592 7.83279 20.6592 8.76053 20.0708 9.33426ZM13.3819 8.04337L5.16252 16.0573L4.49896 19.7652C4.40819 20.2657 4.85578 20.699 5.3691 20.6136L9.17206 19.9635L17.3915 11.9496C17.5386 11.8062 17.5386 11.5742 17.3915 11.4308L13.9172 8.04337C13.7669 7.89993 13.529 7.89993 13.3819 8.04337ZM8.37078 15.3706C8.19863 15.2028 8.19863 14.9342 8.37078 14.7664L13.191 10.0667C13.3631 9.89883 13.6386 9.89883 13.8107 10.0667C13.9829 10.2345 13.9829 10.5031 13.8107 10.6709L8.99052 15.3706C8.81837 15.5385 8.54293 15.5385 8.37078 15.3706ZM7.24085 17.9372H8.74325V19.045L6.7244 19.3898L5.75096 18.4407L6.10466 16.4723H7.24085V17.9372Z" fill="#734E3F"/>
</g>
</svg>
