<svg width="74" height="53" viewBox="0 0 74 53" fill="none" xmlns="http://www.w3.org/2000/svg">
<path d="M30.3725 3.37479C33.3492 2.20384 36.7288 2.20384 39.7056 3.37479L66.9548 14.0933C68.5209 14.7094 68.5209 16.721 66.9548 17.337L39.7055 28.0556C36.7288 29.2265 33.3492 29.2265 30.3724 28.0556L3.12322 17.337C1.55707 16.721 1.55707 14.7094 3.12322 14.0933L30.3725 3.37479Z" fill="url(#paint0_linear_237_1199)" fill-opacity="0.5" stroke="black" stroke-width="3" stroke-linejoin="round"/>
<path d="M13.0686 36.6959V22.0579L33.1714 28.6968C34.4598 29.1223 35.8716 29.1223 37.16 28.6968L57.2627 22.0579V36.6959L48.8261 39.8396C40.0721 43.1015 30.2593 43.1015 21.5053 39.8396L13.0686 36.6959Z" fill="url(#paint1_linear_237_1199)" stroke="black" stroke-width="3" stroke-linecap="round" stroke-linejoin="round"/>
<path d="M66.0052 18.5396V48.449" stroke="black" stroke-width="3" stroke-linecap="round" stroke-linejoin="round"/>
<path d="M70.8609 51.0975C71.6677 51.0975 72.3219 50.5025 72.3219 49.7684V45.6085C72.3219 42.5565 69.6021 40.0823 66.2472 40.0823C62.8923 40.0823 60.1725 42.5565 60.1725 45.6085V49.7684C60.1725 50.5025 60.8266 51.0975 61.6335 51.0975H70.8609Z" fill="url(#paint2_linear_237_1199)" stroke="black" stroke-width="3" stroke-linejoin="round"/>
<defs>
<linearGradient id="paint0_linear_237_1199" x1="53.0512" y1="32.0213" x2="20.5707" y2="-3.84154" gradientUnits="userSpaceOnUse">
<stop stop-color="#F9D3B0"/>
<stop offset="0.0001" stop-color="#F9D7B6"/>
<stop offset="1" stop-color="#F9D3B0"/>
</linearGradient>
<linearGradient id="paint1_linear_237_1199" x1="57.2489" y1="33.4913" x2="13.0548" y2="33.4913" gradientUnits="userSpaceOnUse">
<stop stop-color="#F9D3B0"/>
<stop offset="0.484375" stop-color="#F8EDE3"/>
<stop offset="1" stop-color="#F9D7B6"/>
</linearGradient>
<linearGradient id="paint2_linear_237_1199" x1="70.8579" y1="45.589" x2="61.6306" y2="45.589" gradientUnits="userSpaceOnUse">
<stop stop-color="#F9D3B0"/>
<stop offset="0.484375" stop-color="#F9D7B6"/>
<stop offset="1" stop-color="#F9D3B0"/>
</linearGradient>
</defs>
</svg>
