<svg width="77" height="57" viewBox="0 0 77 57" fill="none" xmlns="http://www.w3.org/2000/svg">
<path opacity="0.3" d="M4.26 53.138C6.474 53.138 7.5 51.662 7.5 50.024V44.36H6.72V49.928C6.72 51.206 6.06 52.406 4.26 52.406C2.46 52.406 1.8 51.206 1.8 49.928V44.36H1.02V50.024C1.02 51.662 2.046 53.138 4.26 53.138ZM12.5275 46.658C11.3455 46.658 10.6435 47.258 10.3135 47.804V46.79H9.59353V55.1H10.3135V51.98C10.6675 52.574 11.3815 53.126 12.5275 53.126C14.0335 53.126 15.2155 51.818 15.2155 49.886C15.2155 47.96 14.0335 46.658 12.5275 46.658ZM12.3835 52.43C11.1775 52.43 10.2895 51.416 10.2895 49.886C10.2895 48.374 11.1655 47.348 12.3835 47.348C13.5175 47.348 14.4595 48.23 14.4595 49.886C14.4595 51.548 13.5175 52.43 12.3835 52.43ZM16.906 53H17.626V44.36H16.906V53ZM22.2191 53.132C23.9531 53.132 25.1111 51.854 25.1111 49.892C25.1111 47.93 23.9531 46.658 22.2191 46.658C20.4791 46.658 19.3211 47.93 19.3211 49.892C19.3211 51.854 20.4791 53.132 22.2191 53.132ZM22.2191 52.436C20.9291 52.436 20.0771 51.44 20.0771 49.892C20.0771 48.344 20.9291 47.348 22.2191 47.348C23.4971 47.348 24.3551 48.344 24.3551 49.892C24.3551 51.44 23.4971 52.436 22.2191 52.436ZM28.9384 46.658C27.9124 46.658 27.1684 47.084 26.6464 47.834L27.2104 48.248C27.6004 47.66 28.1644 47.324 28.9324 47.324C29.9404 47.324 30.5644 47.924 30.5644 49.148V49.292H29.4064C27.5224 49.292 26.3524 49.826 26.3524 51.242C26.3524 52.412 27.2284 53.132 28.5004 53.132C29.6284 53.132 30.3184 52.568 30.5644 52.118V53H31.2844V49.076C31.2844 47.42 30.2524 46.658 28.9384 46.658ZM28.5364 52.466C27.6484 52.466 27.0964 52.016 27.0964 51.248C27.0964 50.18 28.1404 49.946 29.6404 49.946H30.5644V50.69C30.5644 51.416 29.8324 52.466 28.5364 52.466ZM37.8349 44.36V47.798C37.4749 47.21 36.7609 46.658 35.6209 46.658C34.1089 46.658 32.9149 47.966 32.9149 49.898C32.9149 51.824 34.1089 53.132 35.6209 53.132C36.8029 53.132 37.4989 52.538 37.8349 51.992V53H38.5549V44.36H37.8349ZM35.7589 52.436C34.6189 52.436 33.6709 51.56 33.6709 49.898C33.6709 48.236 34.6189 47.348 35.7589 47.348C36.9709 47.348 37.8649 48.374 37.8649 49.898C37.8649 51.416 36.9769 52.436 35.7589 52.436ZM43.694 45.422H44.516V44.36H43.694V45.422ZM43.742 53H44.462V46.79H43.742V53ZM52.9851 46.658C51.7611 46.658 51.2511 47.414 51.0111 47.84C50.7351 47.078 50.0751 46.658 49.1751 46.658C48.1011 46.658 47.5431 47.312 47.3331 47.672V46.79H46.6131V53H47.3331V49.232C47.3331 48.332 48.0051 47.318 49.1091 47.318C49.9371 47.318 50.4291 47.864 50.4291 48.884V53H51.1491V49.232C51.1491 48.332 51.8211 47.318 52.9251 47.318C53.7471 47.318 54.2451 47.864 54.2451 48.884V53H54.9651V48.71C54.9651 47.408 54.1971 46.658 52.9851 46.658ZM59.1845 46.658C58.1585 46.658 57.4145 47.084 56.8925 47.834L57.4565 48.248C57.8465 47.66 58.4105 47.324 59.1785 47.324C60.1865 47.324 60.8105 47.924 60.8105 49.148V49.292H59.6525C57.7685 49.292 56.5985 49.826 56.5985 51.242C56.5985 52.412 57.4745 53.132 58.7465 53.132C59.8745 53.132 60.5645 52.568 60.8105 52.118V53H61.5305V49.076C61.5305 47.42 60.4985 46.658 59.1845 46.658ZM58.7825 52.466C57.8945 52.466 57.3425 52.016 57.3425 51.248C57.3425 50.18 58.3865 49.946 59.8865 49.946H60.8105V50.69C60.8105 51.416 60.0785 52.466 58.7825 52.466ZM68.021 46.79V47.72C67.679 47.162 67.025 46.658 65.963 46.658C64.325 46.658 63.161 47.888 63.161 49.814C63.161 51.734 64.325 52.976 65.969 52.976C66.995 52.976 67.655 52.496 68.021 51.92V52.472C68.021 53.696 67.265 54.56 65.921 54.56C65.087 54.56 64.379 54.242 63.857 53.546L63.323 54.014C63.989 54.824 64.811 55.232 65.891 55.232C67.691 55.232 68.741 54.146 68.741 52.43V46.79H68.021ZM65.993 52.28C64.769 52.28 63.917 51.338 63.917 49.814C63.917 48.29 64.769 47.348 65.993 47.348C67.121 47.348 68.045 48.152 68.045 49.814C68.045 51.47 67.121 52.28 65.993 52.28ZM71.2003 50.132H76.0783V49.934C76.0783 47.942 74.9263 46.658 73.2643 46.658C71.6023 46.658 70.4383 47.936 70.4383 49.904C70.4383 51.848 71.5663 53.132 73.4383 53.132C74.4703 53.132 75.3703 52.628 75.8563 51.8L75.2383 51.434C74.7463 52.226 74.0863 52.448 73.3843 52.448C72.0163 52.448 71.2663 51.524 71.2003 50.132ZM73.2583 47.342C74.3503 47.342 75.1483 48.152 75.2983 49.472H71.2183C71.3623 48.14 72.1723 47.342 73.2583 47.342Z" fill="black"/>
<g opacity="0.4">
<mask id="mask0_210_3907" style="mask-type:alpha" maskUnits="userSpaceOnUse" x="18" y="0" width="42" height="40">
<rect x="18" width="41.1429" height="40" fill="#C4C4C4"/>
</mask>
<g mask="url(#mask0_210_3907)">
<path d="M53.4308 14.2498V30.3212C53.4308 31.8 52.231 32.9998 50.7522 32.9998H27.5379C26.0592 32.9998 24.8594 31.8 24.8594 30.3212V14.2498C24.8594 12.771 26.0592 11.5712 27.5379 11.5712H32.4487L33.135 9.73525C33.5257 8.69172 34.5246 7.99976 35.6406 7.99976H42.644C43.76 7.99976 44.7589 8.69172 45.1496 9.73525L45.8415 11.5712H50.7522C52.231 11.5712 53.4308 12.771 53.4308 14.2498ZM45.8415 22.2855C45.8415 18.5913 42.8393 15.589 39.1451 15.589C35.4509 15.589 32.4487 18.5913 32.4487 22.2855C32.4487 25.9797 35.4509 28.9819 39.1451 28.9819C42.8393 28.9819 45.8415 25.9797 45.8415 22.2855ZM44.0558 22.2855C44.0558 24.9919 41.8516 27.1962 39.1451 27.1962C36.4386 27.1962 34.2344 24.9919 34.2344 22.2855C34.2344 19.579 36.4386 17.3748 39.1451 17.3748C41.8516 17.3748 44.0558 19.579 44.0558 22.2855Z" fill="#734E3F"/>
</g>
</g>
</svg>
